# xmcd
#
# Track frame offsets: 
#        150
#        8779
#        38270
#        67821
#        92167
#        110618
#        142355
#        173930
#        201110
#        239452
#        277847
#        307624
#
# Disc length: 4582 seconds
#
# Revision: 0
# Processed by: cddbd v1.5.2PL0 Copyright (c) Steve Scherf et al.
# Submitted via: ExactAudioCopy v1.0b2
#
DISCID=9811e40c
DTITLE=Raz Dwa Trzy - Młynarski
DYEAR=2007
DGENRE=
TTITLE0=zapowiedź
TTITLE1=idź swoją drogą
TTITLE2=tak jak malował Pan Chagail
TTITLE3=przetrwamy
TTITLE4=piosenka Wańki Mrozowa
TTITLE5=Moskwa - Odessa
TTITLE6=jesteśmy na wczasach
TTITLE7=absolutnie
TTITLE8=polska miłość
TTITLE9=piosenka starych kochanków
TTITLE10=bynajmniej
TTITLE11=jeszcze w zielone gramy
EXTD=
EXTT0=
EXTT1=
EXTT2=
EXTT3=
EXTT4=
EXTT5=
EXTT6=
EXTT7=
EXTT8=
EXTT9=
EXTT10=
EXTT11=
PLAYORDER=
